PathFileType	4	(X/Y/Z)	C:/Users/beibeiliu/ov580/test_trc/User3\sequence.21_training_dense_right.trc
DataRate	CameraRate	NumFrames	NumMarkers	Units	OrigDataRate	OrigDataStartFrame	OrigNumFrames
120	120	16	19	mm	120	1	92
Frame#	Time	ThumbCMC			ThumbMCP			ThumbIP			ThumbTip			IndexMCP			IndexPIP			IndexTip			MiddleMCP			MiddlePIP			MiddleTip			RingMCP			RingPIP			RingTip			PinkyMCP			PinkyPIP			PinkyTip			BackHand1			BackHand2			BackHand3	
		X0	Y0	Z0	X1	Y1	Z1	X2	Y2	Z2	X3	Y3	Z3	X4	Y4	Z4	X5	Y5	Z5	X6	Y6	Z6	X7	Y7	Z7	X8	Y8	Z8	X9	Y9	Z9	X10	Y10	Z10	X11	Y11	Z11	X12	Y12	Z12	X13	Y13	Z13	X14	Y14	Z14	X15	Y15	Z15	X16	Y16	Z16	X17	Y17	Z17	X18	Y18	Z18	
0	0	65.5641	11.5033	13.23	51.6591	-8.9851	-19.5608	73.9803	-23.362	-41.9774	101.469	-25.829	-37.0032	63.9285	20.936	-63.7949	51.2712	13.7807	-89.3412	39.8776	10.6396	-107.668	93.5148	18.8283	-71.7643	84.9621	16.1394	-97.8052	81.8073	10.0723	-129.148	112.171	10.2801	-64.3716	114.063	9.2438	-89.6072	118.491	5.33201	-116.801	130.585	-4.13131	-48.9377	140.963	-9.21192	-67.1434	152.454	-12.9403	-83.7153	117.056	22.9889	-17.1095	122.427	30.5059	12.7806	89.055	36.464	0.446479	
1	0.00833333	55.2147	-4.75406	10.7364	46.3599	-25.9142	-12.9871	69.2033	-39.8858	-37.5934	94.934	-44.8856	-36.0141	52.6469	-1.46629	-61.5502	38.4825	-8.34061	-85.6242	31.7089	-16.502	-108.339	78.2828	-1.66925	-69.3503	71.827	-8.26521	-99.4466	69.3035	-14.1421	-127.996	99.2183	-7.48372	-65.5911	107.11	-11.859	-84.8828	106.134	-14.8526	-114.216	120.582	-20.2516	-46.8986	132.251	-25.8435	-66.2011	140.241	-29.471	-85.8669	106.013	8.40588	-17.0916	112.002	17.8244	11.5344	77.0967	21.817	-3.04503	
2	0.0166667	50.3946	-17.0626	17.7073	44.7674	-38.7775	-12.3223	64.9137	-53.773	-35.9167	91.6432	-53.9879	-32.0089	49.0845	-15.5164	-60.3019	35.0778	-21.8927	-80.2539	29.5477	-30.4687	-103.884	73.8446	-16.3212	-72.6949	68.0251	-22.2456	-97.0569	66.212	-28.8023	-127.349	98.4725	-20.9704	-62.4067	99.6416	-24.1655	-83.0692	103.586	-28.8525	-110.972	117.854	-31.2327	-46.5697	128.275	-38.7707	-61.6642	136.891	-41.1451	-79.6973	102.66	-3.64886	-16.9934	110.444	6.30477	9.50373	74.837	9.64775	-0.708893	
3	0.025	49.2961	-23.0032	15.3219	41.5551	-45.3229	-11.4144	65.8519	-58.6241	-35.7697	93.2821	-61.3904	-31.5474	48.5674	-19.71	-57.5174	35.3405	-28.2542	-83.9012	31.4805	-36.1177	-105.507	79.5285	-21.4088	-69.8933	73.7289	-27.7775	-97.6214	70.8787	-34.4077	-125.032	98.3813	-24.8923	-62.6838	102.996	-28.6327	-85.783	104.425	-33.6608	-110.474	118.348	-36.8457	-43.6949	127.734	-43.6314	-58.7063	140.766	-47.7573	-81.517	100.74	-7.46678	-15.8224	109.21	-1.0756	14.4152	71.1105	2.58011	-2.49257	
4	0.0333333	48.7389	-23.5767	14.2298	42.9916	-45.1799	-11.6474	64.5611	-59.4775	-35.4259	93.4906	-61.5536	-30.462	50.1764	-20.7529	-61.209	36.9854	-26.5464	-81.0075	32.8372	-36.2069	-104.551	76.3903	-20.2808	-65.7478	72.7137	-27.9472	-96.941	69.2705	-32.7189	-123.072	98.3711	-26.6567	-57.1114	101.039	-28.7716	-86.02	105.774	-32.7809	-111.67	119.733	-39.1278	-40.3443	130.079	-44.5268	-62.6786	141.102	-49.7955	-81.2906	102.354	-9.449	-11.7502	113.018	-1.80067	14.565	77.6106	0.931987	1.6605	
5	0.0416667	49.8842	-22.8999	13.0384	44.9105	-42.8939	-11.3929	62.6113	-57.4898	-31.7123	90.2338	-60.6638	-31.1742	47.9907	-18.3907	-59.0813	40.5798	-26.0004	-84.3922	26.3888	-33.079	-106.382	79.2943	-18.489	-66.2938	76.1117	-24.2126	-94.1379	69.3822	-29.7951	-121.921	97.8151	-24.0892	-60.9638	104.243	-26.6144	-82.8866	103.496	-30.7021	-107.985	122.008	-37.8891	-43.941	127.416	-42.3847	-60.0698	143.271	-46.2863	-81.9841	106.518	-10.2854	-14.5365	110.262	-2.01247	12.3111	77.3278	1.59778	-2.06394	
6	0.05	52.6692	-22.4344	13.551	42.5383	-42.7661	-13.327	63.7354	-57.9578	-37.7725	92.7941	-61.7169	-34.2283	49.6244	-17.1591	-60.1272	35.9298	-23.3433	-84.017	32.3222	-31.8777	-106.954	76.972	-16.0841	-67.8885	74.1338	-22.4329	-94.5918	70.3756	-28.6431	-124.57	102.352	-23.1554	-61.3601	105.605	-25.876	-83.5494	107.539	-29.4502	-108.337	119.156	-35.7374	-42.609	132.061	-42.4586	-61.9251	143.35	-45.1562	-83.2398	103.829	-6.41647	-12.367	108.514	-0.0632213	14.2955	75.386	2.77748	-1.47485	
7	0.0583333	52.3619	-21.5462	17.4697	43.9094	-41.6155	-13.8112	64.2751	-56.2523	-36.7661	94.983	-59.1246	-34.6171	48.835	-14.7896	-60.3689	39.6084	-23.3617	-86.3876	30.4452	-29.7471	-109.189	79.9012	-16.5078	-69.942	75.2879	-21.8012	-96.4735	73.9756	-28.4254	-129.104	103.848	-23.4404	-62.337	107.598	-25.4089	-85.0902	105.8	-27.0857	-108.719	120.194	-34.7355	-41.6914	128.992	-40.1895	-60.0133	143.939	-42.469	-80.7831	104.253	-5.56138	-16.9739	110.884	1.17457	15.7086	74.9239	5.27915	1.34698	
8	0.0666667	56.0791	-21.5501	12.5861	44.1982	-41.2541	-13.4951	63.5045	-54.8373	-34.5699	92.3843	-60.8626	-35.3298	51.7514	-14.7952	-61.8	40.1015	-19.6734	-84.7224	34.3129	-25.8012	-105.211	81.8579	-15.4681	-68.6709	76.8637	-21.5123	-98.6689	72.3039	-26.0057	-122.876	101.443	-21.8681	-58.4302	104.753	-24.6736	-82.4503	108.146	-27.0652	-111.674	122.344	-35.3622	-43.3381	128.843	-40.8315	-63.298	143.613	-44.821	-78.563	109.995	-7.17742	-15.3861	115.209	-1.94503	12.816	80.0685	3.53582	2.34691	
9	0.075	53.9121	-20.4655	17.587	44.5911	-41.4169	-13.581	62.356	-55.3673	-35.7099	93.2727	-60.382	-35.9479	54.6908	-13.7266	-61.7445	40.3004	-17.8982	-80.5836	33.1955	-25.1881	-107.228	79.0124	-14.1749	-70.53	76.5365	-20.6785	-97.8617	71.2879	-24.2844	-123.289	102.676	-22.7293	-58.1535	103.774	-24.8229	-82.18	106.14	-27.6281	-109.757	124.314	-37.3412	-42.7906	129.75	-41.8059	-62.1367	139.535	-42.9486	-81.1323	105.52	-9.26845	-11.642	115.541	-4.57287	12.5234	83.3532	4.24281	3.20856	
10	0.0833333	56.5329	-20.3131	14.6162	44.1235	-40.3012	-16.0513	62.4642	-57.0146	-38.2068	93.4119	-60.0901	-34.0791	53.5023	-12.1852	-57.5217	39.1444	-17.8462	-84.2193	36.6848	-23.3794	-105.467	81.299	-15.9045	-69.571	79.3974	-20.4528	-94.0927	73.1495	-25.8029	-123.572	104.123	-23.2274	-61.5491	105.294	-24.8462	-82.8802	106.559	-28.278	-109.561	124.254	-38.8098	-42.6586	129.063	-42.3762	-62.0718	140.867	-44.2638	-84.164	106.22	-9.23018	-9.93406	115.275	-2.73253	16.4052	82.0332	2.00609	4.20311	
11	0.0916667	54.8957	-20.9227	18.523	46.373	-38.3225	-12.3635	66.1441	-54.8302	-39.0932	95.6795	-59.3148	-34.8507	50.8736	-12.1496	-59.759	41.2879	-17.3876	-84.5251	33.0481	-23.6603	-107.778	78.8358	-14.4291	-66.5911	77.3348	-19.6015	-95.928	69.9267	-23.4819	-124.319	103.136	-22.1627	-61.2291	105.795	-25.1994	-83.1827	104.938	-28.5531	-112.19	120.304	-36.203	-47.4301	130.908	-41.8128	-65.1054	141.786	-45.3637	-82.8121	107.72	-9.76065	-15.6216	114.103	-3.50211	14.6116	77.5607	2.94709	0.145562	
12	0.1	52.7012	-19.3126	16.8158	45.8367	-37.5511	-13.6377	62.5866	-53.2347	-35.5765	91.3028	-58.1357	-35.6691	50.0073	-9.78537	-62.3624	41.7629	-16.2203	-84.9386	31.3914	-20.9337	-103.725	78.2154	-12.9363	-72.0617	78.4466	-20.2325	-98.774	72.5084	-24.0777	-125.189	101.914	-21.1227	-63.1277	107.192	-24.8438	-87.0879	103.975	-26.4454	-112.424	122.879	-35.3423	-46.9367	128.588	-40.2945	-64.7846	138.745	-43.3116	-84.279	106.739	-6.06094	-15.0072	113.698	-3.38336	13.4557	79.12	6.46605	2.88937	
13	0.108333	56.8788	-18.9992	13.3032	45.5197	-37.5903	-14.9113	64.127	-50.8544	-36.4917	89.7608	-58.2929	-36.0835	54.4639	-10.4977	-60.9792	43.2093	-15.2404	-85.7793	31.4951	-21.4049	-110.154	83.6666	-13.4625	-68.7208	78.7637	-18.393	-95.434	73.3459	-23.2081	-128.305	104.737	-21.6426	-64.6456	101.645	-22.8008	-85.5068	106.161	-26.5657	-109.422	123.404	-35.8129	-43.9046	130.632	-41.3556	-66.1951	136.954	-42.3476	-82.4083	106.745	-6.38094	-12.4309	114.24	-2.73286	11.5971	78.8895	7.27617	2.34852	
14	0.116667	54.744	-19.2874	13.176	42.0138	-38.7774	-15.087	62.754	-51.878	-37.4022	94.3644	-56.8019	-35.8908	51.0933	-9.51066	-64.1099	42.2178	-16.5657	-87.9414	31.0487	-21.0301	-107.504	78.7209	-13.3153	-70.2566	78.8667	-18.8142	-94.8996	71.8894	-22.9239	-127.242	104.72	-22.5218	-63.1674	104.465	-23.4454	-88.9804	104.341	-26.4599	-114.587	121.284	-36.4802	-44.7344	131.875	-41.3727	-62.0246	140.023	-42.9478	-85.4984	109.553	-8.76709	-14.3375	112.863	-2.00553	13.3527	78.9442	4.07266	-1.27801	
15	0.125	52.6059	-18.4466	13.4107	43.1298	-38.0926	-13.9183	60.1738	-53.2606	-37.3514	88.8115	-58.5751	-35.84	50.1619	-9.71421	-62.3219	38.7082	-16.1923	-86.3787	29.4709	-20.0589	-106.853	79.0297	-14.3104	-71.8631	73.3829	-18.2709	-98.1431	69.2427	-21.7601	-124.968	99.3164	-21.2285	-63.7015	106.273	-24.4421	-83.9092	105.811	-27.2355	-112.467	121.252	-36.9031	-45.0017	129.873	-42.3941	-62.6605	138.362	-43.5876	-83.8298	110.754	-8.48307	-13.2645	116.37	-3.4924	11.11	79.6665	3.97162	2.65911	
